<?xml version="1.0" encoding="UTF-8" standalone="no"?>
<svg
   xmlns:dc="http://purl.org/dc/elements/1.1/"
   xmlns:cc="http://creativecommons.org/ns#"
   xmlns:rdf="http://www.w3.org/1999/02/22-rdf-syntax-ns#"
   xmlns:svg="http://www.w3.org/2000/svg"
   xmlns="http://www.w3.org/2000/svg"
   xmlns:sodipodi="http://sodipodi.sourceforge.net/DTD/sodipodi-0.dtd"
   xmlns:inkscape="http://www.inkscape.org/namespaces/inkscape"
   id="svg"
   version="1.1"
   width="1600"
   height="400"
   sodipodi:docname="srcdeps-logo-with-text.svg"
   inkscape:version="0.92.2 (5c3e80d, 2017-08-06)">
  <metadata
     id="metadata9">
    <rdf:RDF>
      <cc:Work
         rdf:about="">
        <dc:format>image/svg+xml</dc:format>
        <dc:type
           rdf:resource="http://purl.org/dc/dcmitype/StillImage" />
        <dc:title></dc:title>
      </cc:Work>
    </rdf:RDF>
  </metadata>
  <defs
     id="defs7" />
  <sodipodi:namedview
     pagecolor="#ffffff"
     bordercolor="#666666"
     borderopacity="1"
     objecttolerance="10"
     gridtolerance="10"
     guidetolerance="10"
     inkscape:pageopacity="0"
     inkscape:pageshadow="2"
     inkscape:window-width="1830"
     inkscape:window-height="1051"
     id="namedview5"
     showgrid="true"
     inkscape:pagecheckerboard="false"
     inkscape:zoom="0.3337544"
     inkscape:cx="676.08275"
     inkscape:cy="214.01958"
     inkscape:window-x="82"
     inkscape:window-y="0"
     inkscape:window-maximized="1"
     inkscape:current-layer="svg">
    <inkscape:grid
       type="xygrid"
       id="grid4570" />
  </sodipodi:namedview>
  <g
     id="svgg"
     transform="translate(3.2203377e-8,5.9322)">
    <path
       id="path0"
       d="m 334.039,18.337 c -0.392,0.634 -7.368,1.634 -14.039,2.012 -1.98,0.112 -4.14,0.412 -4.8,0.667 -0.66,0.256 -3,0.707 -5.2,1.003 -2.2,0.297 -4.574,0.846 -5.276,1.222 -1.245,0.666 -3.567,1.271 -8.213,2.139 -1.393,0.26 -2.531,0.034 -2.91,-0.579 -0.764,-1.236 -2.401,-0.35 -2.401,1.3 0,0.843 -0.483,1.054 -1.6,0.699 -0.88,-0.279 -1.6,-0.153 -1.6,0.28 0,0.434 -2.97,1.766 -6.6,2.961 -3.63,1.195 -6.96,2.42 -7.4,2.722 -0.44,0.302 -2.42,1.056 -4.4,1.676 -1.98,0.619 -5.043,1.888 -6.807,2.818 -1.763,0.931 -4.484,1.932 -6.045,2.225 -1.561,0.293 -4.244,1.249 -5.962,2.125 -1.718,0.876 -3.696,1.593 -4.395,1.593 -0.699,0 -1.613,0.296 -2.031,0.659 -0.418,0.362 -2.92,1.35 -5.56,2.196 -2.64,0.846 -4.98,1.72 -5.2,1.942 -0.98,0.988 -6.575,3.189 -7.171,2.821 -0.364,-0.225 -0.869,0.132 -1.123,0.794 -0.254,0.662 -0.741,1.128 -1.084,1.037 -1.037,-0.277 -4.54,1.069 -5.913,2.271 -1.79,1.568 -18.742,9.88 -20.15,9.88 -1.323,0 -9.778,4.266 -14.743,7.438 -1.861,1.189 -3.751,2.162 -4.2,2.162 -0.449,0 -0.816,0.36 -0.816,0.8 0,0.44 -0.54,0.8 -1.2,0.8 -0.66,0 -1.2,0.336 -1.2,0.746 0,0.41 -0.66,0.956 -1.466,1.211 -0.806,0.256 -3.596,1.764 -6.2,3.35 -2.604,1.586 -6.354,3.797 -8.334,4.912 -1.98,1.116 -4.832,3.036 -6.337,4.267 -1.505,1.232 -3.091,2.02 -3.524,1.753 -0.438,-0.271 -0.534,-0.077 -0.215,0.437 0.314,0.508 0.215,0.924 -0.22,0.924 -0.434,0 -1.266,0.45 -1.848,1 -2.863,2.705 -8.624,7 -9.391,7 -0.476,0 -0.865,0.54 -0.865,1.2 0,0.66 -0.516,1.2 -1.146,1.2 -0.63,0 -1.375,0.72 -1.654,1.6 -0.279,0.88 -1.024,1.6 -1.654,1.6 -0.63,0 -1.146,0.347 -1.146,0.771 0,0.425 -2.889,3.665 -6.42,7.2 -3.531,3.536 -6.205,6.429 -5.943,6.429 0.262,0 -0.859,1.26 -2.492,2.8 -1.633,1.54 -3.278,2.8 -3.657,2.8 -0.378,0 -0.688,0.384 -0.688,0.853 0,1.34 -7.371,9.536 -8.146,9.057 -0.381,-0.236 -0.595,-0.121 -0.474,0.255 0.214,0.664 -5.189,7.361 -10.3,12.769 -1.386,1.466 -2.38,2.666 -2.21,2.666 0.752,0 -4.748,9.359 -6.347,10.8 -0.976,0.88 -2.271,2.584 -2.877,3.786 -0.606,1.203 -1.674,2.841 -2.374,3.641 -1.519,1.737 -1.939,2.463 -7.32,12.659 -2.297,4.353 -4.591,8.454 -5.099,9.114 -0.507,0.66 -1.416,2.188 -2.02,3.395 -0.604,1.207 -1.938,2.745 -2.965,3.418 -1.028,0.673 -1.868,1.67 -1.868,2.216 0,0.546 -1.286,2.902 -2.858,5.236 -1.572,2.334 -3.901,6.57 -5.177,9.412 -1.275,2.843 -3.229,6.363 -4.342,7.822 -1.113,1.458 -2.035,2.978 -2.05,3.377 -0.015,0.398 -0.723,2.164 -1.573,3.924 -0.85,1.76 -1.558,3.671 -1.573,4.247 -0.015,0.576 -0.387,0.825 -0.827,0.553 -0.45,-0.278 -0.8,0.361 -0.8,1.461 0,1.076 -0.538,2.987 -1.195,4.248 -0.657,1.26 -1.197,2.849 -1.2,3.531 -0.003,0.682 -0.305,1.582 -0.673,2 -0.367,0.418 -1.286,2.442 -2.042,4.497 -0.756,2.055 -1.895,4.169 -2.532,4.698 -0.699,0.58 -1.166,2.428 -1.177,4.663 -0.011,2.069 -0.891,5.82 -1.996,8.502 -1.088,2.64 -1.979,5.255 -1.981,5.811 -0.002,0.556 -0.331,1.636 -0.73,2.4 -2.23,4.269 -5.553,14.857 -6.015,19.172 -0.294,2.741 -1.185,7.061 -1.979,9.6 -4.98,15.914 -5.61,20.198 -6.22,42.293 -0.374,13.594 -0.265,18.627 0.416,19.047 0.564,0.349 0.924,2.875 0.924,6.487 v 5.915 l 3,0.833 c 4.831,1.341 7.242,1.036 9.15,-1.158 0.956,-1.1 2.192,-2 2.747,-2 1.638,0 2.239,-1.708 2.396,-6.8 0.522,-16.986 1.312,-27.926 2.37,-32.8 0.669,-3.08 1.714,-8.3 2.321,-11.6 0.608,-3.3 1.693,-8.34 2.41,-11.2 0.717,-2.86 1.766,-7.615 2.33,-10.567 0.564,-2.952 1.439,-5.865 1.944,-6.474 0.505,-0.608 0.7,-1.325 0.433,-1.592 -0.267,-0.267 -0.045,-1.674 0.495,-3.126 0.539,-1.453 1.273,-3.901 1.631,-5.441 1.512,-6.514 3.364,-12.508 4.329,-14.012 0.569,-0.886 1.307,-2.866 1.64,-4.4 0.333,-1.533 0.836,-2.968 1.118,-3.188 0.283,-0.22 0.918,-1.84 1.412,-3.6 1.174,-4.183 2.606,-8.222 3.969,-11.2 0.605,-1.32 1.329,-3.66 1.609,-5.2 0.281,-1.54 1.245,-3.61 2.143,-4.6 0.897,-0.99 1.399,-1.8 1.115,-1.8 -0.284,0 0.373,-1.674 1.461,-3.719 1.087,-2.046 1.977,-4.239 1.977,-4.874 0,-0.635 0.72,-2.07 1.6,-3.189 0.88,-1.118 1.6,-2.544 1.6,-3.168 0,-1.668 3.641,-6.742 4.338,-6.046 0.327,0.328 0.507,0.236 0.399,-0.204 -0.432,-1.767 2.686,-8.111 6.982,-14.202 1.474,-2.091 2.681,-4.098 2.681,-4.46 0,-0.64 5.853,-8.722 8.356,-11.538 0.684,-0.77 1.309,-1.67 1.389,-2 0.31,-1.279 11.172,-17.415 11.892,-17.667 0.42,-0.146 0.763,-0.596 0.763,-1 0,-0.403 0.63,-1.379 1.4,-2.168 0.77,-0.789 2.12,-2.47 3,-3.736 0.88,-1.266 3.296,-4.131 5.369,-6.366 2.073,-2.234 5.481,-6.134 7.574,-8.664 2.092,-2.531 4.446,-4.805 5.23,-5.054 0.785,-0.249 1.427,-0.859 1.427,-1.355 0,-1.273 4.086,-5.39 5.35,-5.39 0.577,0 1.05,-0.475 1.05,-1.056 0,-1.216 5.551,-5.854 6.612,-5.524 0.389,0.121 0.576,-0.059 0.417,-0.4 -0.159,-0.341 0.894,-1.759 2.341,-3.151 1.446,-1.393 2.63,-2.4 2.63,-2.239 0,0.162 0.953,-0.589 2.117,-1.668 1.164,-1.079 2.525,-1.962 3.023,-1.962 0.499,0 1.436,-0.745 2.083,-1.656 0.648,-0.911 2.855,-2.868 4.907,-4.348 2.051,-1.481 3.94,-3.346 4.198,-4.144 0.258,-0.799 1.28,-1.849 2.271,-2.335 6.03,-2.955 11.006,-5.937 10.819,-6.484 -0.12,-0.348 1.402,-1.425 3.382,-2.393 1.98,-0.968 4.32,-2.469 5.2,-3.336 2.291,-2.258 9.242,-5.773 10.22,-5.168 0.478,0.295 0.586,0.122 0.256,-0.412 -0.314,-0.508 -0.189,-0.924 0.277,-0.924 1.516,0 2.034,-0.225 2.847,-1.238 1.099,-1.37 10.493,-6.288 14.4,-7.539 1.76,-0.564 3.785,-1.535 4.5,-2.158 0.715,-0.622 1.679,-1.027 2.143,-0.898 0.464,0.128 1.319,-0.326 1.901,-1.01 0.581,-0.683 3.036,-2.076 5.456,-3.095 2.42,-1.019 5.3,-2.303 6.4,-2.854 2.523,-1.263 8.231,-3.181 8.923,-2.998 0.288,0.077 0.962,-0.39 1.498,-1.036 0.536,-0.646 1.43,-1.174 1.986,-1.174 0.555,0 2.041,-0.538 3.302,-1.195 1.26,-0.657 3.08,-1.197 4.044,-1.2 0.964,-0.003 1.99,-0.39 2.281,-0.86 0.29,-0.47 1.083,-0.641 1.763,-0.38 0.679,0.26 1.818,-0.054 2.531,-0.699 0.712,-0.646 2.73,-1.533 4.484,-1.973 1.753,-0.44 5.3,-1.536 7.881,-2.436 2.581,-0.9 5.014,-1.438 5.406,-1.196 0.392,0.242 0.928,-0.122 1.192,-0.81 0.264,-0.688 1.023,-1.251 1.687,-1.251 1.337,0 8.635,-2.236 10.811,-3.313 0.764,-0.378 2.294,-0.687 3.4,-0.687 1.106,0 2.011,-0.288 2.011,-0.639 0,-1.341 6.163,-2.772 14.713,-3.416 9.469,-0.712 12.057,-1.067 14.287,-1.957 0.984,-0.393 1.4,-0.178 1.4,0.726 0,0.707 0.36,1.286 0.8,1.286 0.44,0 0.8,-0.54 0.8,-1.2 0,-0.66 0.09,-1.212 0.2,-1.226 5.341,-0.701 15.731,-0.733 16.152,-0.051 0.299,0.482 1.622,0.877 2.942,0.877 1.397,0 2.194,0.335 1.906,0.8 -0.272,0.44 -0.113,0.8 0.353,0.8 0.466,0 0.847,-0.344 0.847,-0.764 0,-1.38 4.994,-1.638 20,-1.033 l 14.8,0.597 2.2,-2.993 c 2.411,-3.281 2.78,-6.573 1,-8.925 -0.632,-0.835 -0.959,-1.825 -0.727,-2.2 0.232,-0.375 0.04,-0.682 -0.426,-0.682 -0.466,0 -0.855,-0.81 -0.865,-1.8 -0.048,-4.907 -6.054,-7.535 -19.532,-8.547 -11.409,-0.857 -35.505,-0.934 -36.011,-0.116 M 365.6,60.449 c -3.3,0.576 -7.147,0.855 -8.548,0.62 -1.402,-0.235 -3.019,-0.137 -3.595,0.219 -0.575,0.356 -3.222,0.706 -5.882,0.779 -2.66,0.072 -5.903,0.365 -7.206,0.65 -1.303,0.286 -3.412,0.708 -4.687,0.938 -1.275,0.231 -4.69,0.916 -7.589,1.524 -3.827,0.802 -5.421,0.861 -5.821,0.214 -0.394,-0.637 -0.909,-0.593 -1.811,0.156 -0.694,0.576 -1.261,0.779 -1.261,0.451 0,-0.328 -0.527,-0.158 -1.172,0.377 -0.645,0.535 -3.153,1.092 -5.573,1.238 -4.382,0.265 -14.61,2.341 -17.655,3.585 -0.88,0.359 -4.3,1.246 -7.6,1.97 -3.3,0.724 -6.72,1.626 -7.6,2.005 -0.88,0.378 -3.22,1.101 -5.2,1.605 -1.98,0.504 -4.86,1.278 -6.4,1.719 -1.54,0.442 -4.42,1.145 -6.4,1.561 -1.98,0.417 -4.86,1.366 -6.4,2.109 -1.54,0.743 -3.333,1.439 -3.985,1.547 -0.652,0.108 -1.312,0.576 -1.467,1.04 -0.155,0.464 -0.991,0.844 -1.858,0.844 -1.778,0 -15.563,6.997 -18.797,9.541 -1.16,0.912 -2.544,1.659 -3.077,1.659 -0.532,0 -1.62,0.72 -2.416,1.6 -0.796,0.88 -1.787,1.6 -2.2,1.6 -0.414,0 -1.889,0.809 -3.277,1.797 -1.387,0.988 -2.523,1.685 -2.523,1.548 0,-0.58 -3.505,1.152 -7.57,3.74 -2.404,1.53 -4.834,2.782 -5.4,2.782 -0.567,0 -0.86,0.17 -0.651,0.379 0.208,0.208 -0.962,1.095 -2.6,1.97 -1.639,0.875 -3.999,2.447 -5.247,3.493 -1.247,1.046 -2.597,1.698 -3,1.449 -0.402,-0.249 -0.732,0.13 -0.732,0.842 0,0.712 -0.36,1.072 -0.8,0.8 -0.44,-0.272 -0.8,-0.187 -0.8,0.188 0,0.376 -1.885,2.107 -4.19,3.848 -5.13,3.875 -7.488,5.821 -9.891,8.164 -1.016,0.99 -2.223,1.8 -2.683,1.8 -0.46,0 -0.746,0.274 -0.636,0.61 0.223,0.68 -9.054,9.747 -10,9.773 -0.33,0.009 -0.6,0.369 -0.6,0.8 0,0.43 -3.15,3.963 -7,7.85 -3.85,3.888 -8.44,9.098 -10.2,11.579 -1.76,2.481 -3.65,4.528 -4.2,4.55 -0.55,0.021 -1,0.31 -1,0.642 0,0.522 -6.769,9.956 -10.015,13.959 -0.608,0.749 -1.633,2.369 -2.277,3.6 -0.645,1.23 -1.923,3.032 -2.84,4.004 -0.917,0.971 -1.668,2.303 -1.668,2.96 0,0.656 -0.494,1.481 -1.099,1.833 -0.604,0.352 -2.047,2.44 -3.207,4.64 -1.159,2.2 -2.555,4.706 -3.101,5.57 -0.881,1.392 -2.94,4.731 -5.94,9.63 -0.972,1.587 -11.736,23.329 -13.07,26.4 -0.383,0.88 -1.435,3.29 -2.339,5.356 -0.904,2.066 -1.644,4.136 -1.644,4.6 0,0.464 -0.36,0.844 -0.8,0.844 -0.44,0 -0.8,0.749 -0.8,1.664 0,0.915 -0.865,3.885 -1.922,6.6 -1.058,2.715 -2.344,6.281 -2.859,7.925 -0.514,1.644 -1.269,3.195 -1.677,3.447 -0.408,0.252 -0.742,1.289 -0.742,2.303 0,1.015 -0.673,2.704 -1.496,3.753 -0.822,1.049 -1.77,3.163 -2.105,4.696 -0.335,1.534 -1.073,3.514 -1.641,4.4 -0.568,0.887 -1.205,2.692 -1.415,4.012 -0.211,1.32 -0.779,3.413 -1.263,4.652 -0.484,1.239 -0.88,3.15 -0.88,4.247 0,1.098 -0.283,1.821 -0.629,1.607 -0.345,-0.214 -0.628,0.79 -0.628,2.231 0,1.44 -0.595,4.564 -1.323,6.941 -2.591,8.465 -2.993,10.867 -3.805,22.722 -0.453,6.6 -1.37,14.307 -2.039,17.126 -0.669,2.82 -1.393,10.641 -1.61,17.382 l -0.393,12.255 3.198,2.018 c 4.981,3.145 9.232,2.831 10.537,-0.778 0.556,-1.538 1.659,-3.002 2.452,-3.254 0.792,-0.251 1.44,-0.973 1.44,-1.603 0,-0.63 0.72,-1.866 1.6,-2.746 0.88,-0.88 1.412,-1.6 1.182,-1.6 -0.231,0 0.141,-0.854 0.825,-1.899 0.856,-1.306 1.095,-2.866 0.766,-5 -0.272,-1.767 0.262,-7.573 1.241,-13.501 2.252,-13.628 2.396,-14.566 2.872,-18.8 0.223,-1.98 0.716,-4.32 1.097,-5.2 0.381,-0.88 0.907,-3.703 1.17,-6.273 0.263,-2.57 1.011,-5.205 1.663,-5.857 0.651,-0.651 1.247,-2.599 1.324,-4.327 0.328,-7.36 0.46,-8.276 1.232,-8.534 0.446,-0.148 0.689,-1.321 0.539,-2.604 -0.149,-1.284 0.08,-2.552 0.509,-2.817 0.429,-0.265 0.781,-2.171 0.783,-4.235 0.007,-8.726 4.772,-28.254 7.271,-29.799 0.475,-0.293 0.834,-0.853 0.798,-1.243 -0.109,-1.209 1.698,-6.228 2.842,-7.889 0.597,-0.868 1.086,-2.032 1.086,-2.586 0,-0.554 2.289,-5.784 5.087,-11.622 2.798,-5.838 5.315,-11.154 5.595,-11.814 0.279,-0.66 0.87,-1.83 1.313,-2.6 1.36,-2.365 2.2,-3.94 6.079,-11.4 2.059,-3.96 4.326,-8.1 5.037,-9.2 0.711,-1.1 2.192,-3.767 3.291,-5.926 1.099,-2.159 3.166,-5.219 4.594,-6.8 1.428,-1.581 2.598,-3.091 2.6,-3.357 0.002,-0.266 0.814,-1.379 1.804,-2.474 6.735,-7.448 8.355,-9.352 10.07,-11.843 1.061,-1.54 2.936,-3.708 4.168,-4.817 1.232,-1.109 2.486,-2.999 2.787,-4.2 0.302,-1.201 0.891,-2.183 1.309,-2.183 0.418,0 0.517,-0.394 0.219,-0.876 -0.646,-1.045 19.176,-20.692 20.932,-20.746 0.393,-0.012 1.703,-1.031 2.911,-2.263 1.208,-1.232 3.188,-2.731 4.4,-3.33 1.212,-0.599 4.244,-2.641 6.736,-4.537 2.493,-1.897 4.758,-3.448 5.033,-3.448 0.275,0 1.475,-0.672 2.667,-1.494 1.193,-0.821 3.968,-2.612 6.168,-3.979 2.2,-1.366 4.531,-2.944 5.18,-3.506 0.65,-0.562 1.305,-0.841 1.457,-0.621 0.151,0.22 0.628,-0.23 1.059,-1 0.431,-0.77 1.865,-1.959 3.186,-2.643 1.322,-0.683 3.05,-1.853 3.84,-2.6 2.654,-2.506 4.878,-4.146 4.878,-3.596 0,0.3 0.45,-0.016 1,-0.702 1.01,-1.259 2.648,-2.209 9.645,-5.597 2.115,-1.024 4.995,-2.475 6.4,-3.224 1.405,-0.748 3.141,-1.378 3.857,-1.4 0.716,-0.021 1.71,-0.53 2.21,-1.131 0.499,-0.602 2.973,-1.732 5.498,-2.511 2.524,-0.779 5.31,-1.806 6.19,-2.283 2.928,-1.584 6.798,-2.757 6.268,-1.899 -0.278,0.449 0.538,0.238 1.814,-0.469 2.831,-1.569 8.635,-3.471 15.086,-4.942 2.658,-0.606 6.226,-1.457 7.929,-1.89 1.703,-0.434 3.557,-0.612 4.119,-0.396 0.562,0.216 1.245,0.031 1.518,-0.41 0.425,-0.688 8.104,-3.384 10.466,-3.675 0.44,-0.054 2.308,-0.541 4.151,-1.083 4.022,-1.181 13.692,-1.581 15.649,-0.646 1.088,0.519 1.4,0.314 1.4,-0.924 0,-1.922 1.597,-2.338 11.8,-3.081 5.359,-0.391 7.4,-0.285 7.4,0.381 0,0.507 0.54,0.921 1.2,0.921 0.66,0 1.2,-0.36 1.2,-0.8 0,-1.18 20.578,-1.067 20.972,0.115 0.332,0.998 6.56,0.379 8.526,-0.846 1.111,-0.693 -1.002,-7.269 -2.335,-7.269 -0.291,0 -1.405,-0.81 -2.476,-1.8 -4.262,-3.94 -6.174,-4.247 -15.887,-2.551 m -11.2,25.262 c -6.82,0.281 -16.54,1.128 -21.6,1.883 -5.06,0.756 -11,1.627 -13.2,1.936 -3.989,0.561 -9.155,2.037 -11.789,3.368 -0.764,0.386 -1.844,0.704 -2.4,0.707 -0.556,0.003 -1.966,0.503 -3.134,1.112 -1.167,0.609 -3.507,1.559 -5.2,2.11 -1.692,0.551 -7.563,2.756 -13.045,4.901 -5.482,2.145 -11.117,3.983 -12.522,4.086 -1.405,0.102 -2.394,0.445 -2.199,0.763 0.195,0.317 -0.65,0.826 -1.878,1.132 -1.228,0.305 -3.414,1.216 -4.857,2.023 -1.444,0.807 -3.312,1.468 -4.153,1.468 -0.841,0 -1.696,0.271 -1.901,0.603 -0.205,0.332 -3.017,1.489 -6.248,2.571 -3.231,1.082 -6.414,2.388 -7.074,2.902 -0.66,0.514 -2.1,1.205 -3.2,1.536 -1.1,0.331 -3.3,1.625 -4.89,2.875 -3.237,2.546 -11.098,7.913 -11.59,7.913 -0.176,0 -1.04,0.72 -1.92,1.6 -0.88,0.88 -2.341,1.6 -3.247,1.6 -0.906,0 -1.444,0.329 -1.195,0.732 0.248,0.402 -0.82,1.517 -2.374,2.478 -1.555,0.961 -5.37,3.872 -8.478,6.468 -5.41,4.521 -6.346,5.053 -8.433,4.798 -0.511,-0.062 -1.633,0.783 -2.494,1.878 -0.862,1.096 -1.852,1.734 -2.201,1.419 -0.349,-0.315 -0.407,-0.174 -0.129,0.313 0.278,0.488 -3.11,4.628 -7.528,9.2 -4.418,4.573 -8.553,9.484 -9.188,10.914 -0.635,1.43 -1.422,2.6 -1.748,2.6 -0.327,0 -1.033,0.99 -1.569,2.2 -0.536,1.21 -2.028,3.353 -3.316,4.763 -2.683,2.936 -12.28,17.2 -13.764,20.458 -0.546,1.198 -1.316,2.179 -1.712,2.179 -0.395,0 -0.53,0.305 -0.299,0.679 0.231,0.373 -0.302,1.453 -1.184,2.4 -0.882,0.946 -1.397,1.721 -1.144,1.721 0.253,0 0.019,0.81 -0.52,1.8 -0.538,0.99 -1.073,2.34 -1.188,3 -0.116,0.66 -0.444,2.158 -0.729,3.329 -0.588,2.409 1.795,4.331 4.492,3.626 0.819,-0.215 1.873,0.073 2.343,0.639 2.114,2.547 7.205,1.454 7.205,-1.545 0,-1.681 7.106,-15.158 8.566,-16.249 0.737,-0.55 1.001,-1.011 0.587,-1.025 -0.414,-0.014 -0.099,-0.522 0.7,-1.128 0.8,-0.606 1.389,-1.224 1.309,-1.374 -0.317,-0.601 3.448,-6.273 4.164,-6.273 0.423,0 0.575,-0.313 0.339,-0.695 -0.577,-0.933 7.199,-9.757 7.979,-9.056 0.337,0.303 0.383,0.149 0.103,-0.342 -0.28,-0.491 0.202,-1.537 1.072,-2.324 0.869,-0.787 1.581,-1.835 1.581,-2.329 0,-0.493 1.041,-2.037 2.313,-3.43 1.272,-1.392 2.145,-2.7 1.939,-2.905 -0.205,-0.205 0.342,-0.6 1.216,-0.877 0.874,-0.277 2.169,-1.39 2.879,-2.473 0.709,-1.083 1.759,-1.969 2.333,-1.969 0.573,0 2.976,-2.137 5.34,-4.749 2.364,-2.612 4.642,-4.536 5.063,-4.276 0.42,0.26 0.507,0.056 0.192,-0.453 -0.346,-0.56 0.206,-1.221 1.399,-1.674 1.084,-0.412 2.222,-1.156 2.529,-1.653 0.307,-0.497 1.081,-0.704 1.719,-0.459 0.639,0.245 0.958,0.117 0.71,-0.284 -0.54,-0.875 3.927,-4.227 4.658,-3.495 0.281,0.28 0.51,-0.09 0.51,-0.824 0,-0.733 0.317,-1.333 0.703,-1.333 0.387,0 4.677,-2.698 9.533,-5.995 4.856,-3.297 11.109,-7.086 13.897,-8.42 2.787,-1.334 5.607,-2.759 6.267,-3.165 2.336,-1.44 11.623,-5.486 13.2,-5.751 0.88,-0.148 1.837,-0.597 2.126,-0.997 0.29,-0.401 1.19,-0.788 2,-0.862 2.162,-0.195 11.827,-4.907 13.025,-6.35 0.67,-0.809 1.448,-1.004 2.236,-0.563 0.771,0.431 3.563,-0.142 7.711,-1.583 3.576,-1.242 7.447,-2.271 8.601,-2.287 1.155,-0.015 3.542,-0.536 5.305,-1.158 1.763,-0.622 6.219,-1.733 9.901,-2.469 3.682,-0.736 8.055,-1.62 9.718,-1.966 1.663,-0.345 3.702,-1.242 4.531,-1.993 1.266,-1.145 3.803,-1.425 15.777,-1.741 7.848,-0.207 15.651,-0.689 17.341,-1.07 2.596,-0.586 3.377,-0.429 5.035,1.012 2.107,1.833 6.693,2.794 6.693,1.402 0,-0.464 1.054,-0.844 2.343,-0.844 2.678,0 5.159,-2.059 4.512,-3.745 -0.24,-0.626 0.1,-1.958 0.756,-2.96 2.523,-3.85 -0.809,-10.023 -5.472,-10.138 -0.957,-0.024 -3.899,-0.114 -6.539,-0.2 -2.64,-0.086 -10.38,0.073 -17.2,0.354 m 11.368,30.768 c -0.567,0.616 -2.025,1.121 -3.24,1.121 -1.214,0 -2.55,0.332 -2.968,0.737 -0.418,0.405 -2.462,0.919 -4.541,1.141 -2.08,0.223 -4.15,0.632 -4.6,0.91 -0.451,0.279 -0.819,0.125 -0.819,-0.341 0,-1.506 -3.947,-0.91 -4.986,0.753 -0.549,0.88 -1.49,1.6 -2.091,1.6 -0.601,0 -2.405,1.02 -4.008,2.267 -3.765,2.928 -5.715,3.647 -5.715,2.108 0,-0.646 -0.228,-1.175 -0.506,-1.175 -0.639,0 -3.494,3.259 -3.494,3.989 0,1.01 -6.56,7.613 -7.343,7.391 -0.427,-0.121 -0.573,0.108 -0.325,0.51 0.248,0.401 -0.086,1.174 -0.741,1.717 -0.655,0.544 -1.191,1.464 -1.191,2.046 0,0.581 -0.68,1.533 -1.511,2.115 -3.174,2.223 -5.931,10.775 -4.341,13.467 1.892,3.203 14.652,2.922 14.652,-0.323 0,-1.602 5.147,-9.312 6.216,-9.312 0.593,0 0.896,-0.296 0.672,-0.657 -0.814,-1.318 11.849,-6.869 17.708,-7.764 1.868,-0.285 3.608,-0.862 3.868,-1.282 1.187,-1.921 11.536,0.073 11.536,2.222 0,0.585 0.81,1.07 1.8,1.078 0.99,0.009 3.635,0.057 5.878,0.108 6.625,0.149 9.128,-2.345 10.344,-10.305 0.353,-2.315 0.228,-3.4 -0.393,-3.4 -0.502,0 -1.289,-1.08 -1.749,-2.4 -0.46,-1.32 -1.183,-2.4 -1.605,-2.4 -0.423,0 -0.513,-0.416 -0.199,-0.924 0.341,-0.551 0.221,-0.707 -0.297,-0.386 -0.767,0.473 -4.143,-0.652 -8.368,-2.788 -0.764,-0.386 -2.448,-0.702 -3.741,-0.702 -1.362,0 -2.462,-0.472 -2.611,-1.121 -0.222,-0.962 -0.406,-0.962 -1.291,0 M 274.8,145.391 c -11.593,4.948 -25.321,11.545 -26.657,12.809 -0.582,0.55 -1.504,1 -2.049,1 -0.546,0 -1.715,0.673 -2.598,1.496 -0.883,0.823 -3.053,2.353 -4.822,3.4 -6.32,3.742 -9.561,6.24 -15.674,12.082 -3.41,3.259 -6.2,5.786 -6.2,5.616 0,-0.169 -0.54,0.232 -1.2,0.892 -0.66,0.66 -1.2,1.456 -1.2,1.769 0,0.942 -2.703,2.692 -4.2,2.72 -0.854,0.015 -1.4,0.644 -1.4,1.61 0,0.872 -1.317,2.942 -2.928,4.6 -1.61,1.658 -2.786,3.015 -2.614,3.015 0.172,0 -0.253,0.808 -0.944,1.795 -0.692,0.987 -1.525,1.527 -1.852,1.2 -0.328,-0.327 -0.497,-0.235 -0.378,0.205 0.259,0.954 -3.192,6.8 -4.015,6.8 -0.315,0 -1.184,1.17 -1.93,2.6 -0.747,1.43 -2.06,3.68 -2.919,5 -0.859,1.32 -2.468,4.2 -3.577,6.4 -1.109,2.2 -2.883,5.542 -3.943,7.426 -1.633,2.904 -2.569,5.233 -2.814,7.001 -0.029,0.214 -0.671,1.556 -1.425,2.981 -0.755,1.426 -1.491,3.297 -1.637,4.158 -0.145,0.861 -1.155,3.448 -2.244,5.75 -1.089,2.302 -1.98,4.747 -1.98,5.434 0,0.688 -0.36,1.25 -0.8,1.25 -0.44,0 -0.8,0.651 -0.8,1.447 0,4.061 -1.941,4.72 -6.743,2.288 -2.459,-1.245 -4.267,-2.595 -4.017,-3 0.25,-0.404 -0.145,-0.735 -0.877,-0.735 -0.733,0 -2.402,-0.9 -3.709,-2 -4.759,-4.005 -10.301,-2.242 -9.883,3.143 0.272,3.505 1.47,8.511 2.134,8.922 0.382,0.236 0.706,1.218 0.72,2.182 0.014,0.964 0.554,2.452 1.2,3.306 0.646,0.854 1.175,2.452 1.175,3.552 0,3.23 1.663,11.37 3.232,15.818 0.8,2.268 1.232,4.346 0.96,4.619 -0.273,0.272 0.293,1.047 1.256,1.722 0.964,0.675 1.752,1.854 1.752,2.621 0,0.767 0.432,1.827 0.96,2.355 0.528,0.528 0.618,0.971 0.2,0.985 -0.418,0.014 1.001,0.887 3.153,1.942 9.999,4.898 15.017,1.671 13.779,-8.861 -0.592,-5.034 0.744,-14.772 2.152,-15.688 0.526,-0.341 5.096,-0.611 10.156,-0.599 5.06,0.012 10.64,-0.339 12.4,-0.779 1.76,-0.441 4.28,-0.81 5.6,-0.821 1.32,-0.01 4.56,-1.069 7.2,-2.353 7.956,-3.87 13.83,-6.395 16.178,-6.953 1.222,-0.29 2.762,-0.965 3.422,-1.499 1.142,-0.924 2.886,-1.71 4.208,-1.896 0.335,-0.047 1.681,-0.64 2.992,-1.318 1.311,-0.678 2.657,-1.265 2.992,-1.304 0.334,-0.04 1.508,-0.674 2.608,-1.411 1.1,-0.736 4.25,-2.383 7,-3.659 2.75,-1.276 5,-2.635 5,-3.02 0,-0.385 0.36,-0.478 0.8,-0.206 0.44,0.272 0.8,0.137 0.8,-0.299 0,-0.873 3.132,-2.15 4.4,-1.793 0.44,0.124 0.545,-0.029 0.234,-0.34 -0.723,-0.723 4.004,-3.953 6.82,-4.66 1.18,-0.296 2.146,-1.093 2.146,-1.77 0,-0.678 0.36,-1.01 0.8,-0.738 0.44,0.272 0.8,0.113 0.8,-0.353 0,-0.466 0.45,-0.851 1,-0.856 0.55,-0.004 2.221,-1.264 3.712,-2.8 1.492,-1.535 3.048,-2.791 3.457,-2.791 1.099,0 3.035,-2.129 2.46,-2.705 -0.273,-0.272 0.014,-0.51 0.638,-0.527 2.669,-0.076 20.627,-25.48 26.839,-37.968 1.969,-3.96 4.474,-8.442 5.566,-9.961 1.467,-2.039 1.94,-3.631 1.813,-6.093 l -0.173,-3.333 h -3.837 c -2.111,0 -3.645,0.312 -3.409,0.694 0.236,0.381 -0.133,0.693 -0.819,0.693 -0.686,0 -1.157,0.311 -1.047,0.691 0.364,1.258 -6.172,8.844 -7.647,8.877 -0.796,0.018 -1.22,0.4 -0.943,0.849 0.474,0.767 -4.908,3.654 -6.21,3.332 -0.33,-0.082 -0.6,0.333 -0.6,0.923 0,0.589 -0.81,1.48 -1.8,1.98 -0.99,0.5 -3.6,1.983 -5.8,3.295 -2.2,1.312 -4.791,2.401 -5.759,2.419 -0.967,0.019 -2.74,0.943 -3.939,2.054 -1.199,1.112 -2.567,1.89 -3.041,1.73 -0.473,-0.16 -1.221,0.126 -1.661,0.635 -0.702,0.812 -3.151,1.949 -8.8,4.084 -0.88,0.333 -2.664,0.725 -3.964,0.872 -1.3,0.146 -2.722,0.625 -3.16,1.063 -1.628,1.628 -4.627,0.973 -3.676,-0.804 0.471,-0.88 1.552,-1.6 2.403,-1.6 0.926,0 1.389,-0.41 1.155,-1.021 -0.413,-1.077 5.728,-7.596 6.666,-7.076 0.3,0.167 1.224,-0.913 2.052,-2.4 0.827,-1.486 1.855,-2.923 2.283,-3.192 0.428,-0.27 0.778,-0.711 0.779,-0.982 0.007,-1.847 1.055,-3.746 2.282,-4.135 0.795,-0.253 1.791,-1.435 2.212,-2.627 0.421,-1.192 2.611,-5.196 4.867,-8.899 2.255,-3.703 4.101,-7.187 4.101,-7.743 0,-0.556 0.465,-1.486 1.034,-2.068 0.568,-0.581 1.512,-2.227 2.097,-3.657 0.585,-1.43 1.379,-2.6 1.766,-2.6 0.387,0 0.703,-0.741 0.703,-1.647 0,-0.906 0.324,-1.447 0.721,-1.202 0.405,0.25 0.706,-2.353 0.688,-5.953 -0.022,-4.34 -0.334,-6.398 -0.97,-6.398 -0.515,0 -1.635,-0.63 -2.488,-1.4 -2.329,-2.102 -7.266,-1.951 -12.751,0.391 m 80.478,7.715 c -0.514,0.62 -2.146,1.354 -3.625,1.631 -1.48,0.278 -3.594,1.216 -4.698,2.084 -1.104,0.868 -2.32,1.579 -2.701,1.579 -1.433,0 -7.305,7.1 -7.823,9.458 -1.316,5.991 11.479,14.024 16.567,10.401 3.974,-2.829 9.449,-5.478 11.874,-5.743 1.284,-0.141 2.573,-0.494 2.864,-0.786 0.292,-0.291 1.662,-0.53 3.044,-0.53 1.383,0 3.213,-0.529 4.067,-1.175 0.854,-0.646 2.363,-1.186 3.353,-1.2 1.368,-0.019 1.8,-0.494 1.8,-1.978 0,-1.074 0.36,-2.175 0.8,-2.447 1.225,-0.757 0.951,-4.392 -0.37,-4.899 -0.643,-0.247 -1.371,-1.085 -1.617,-1.861 -0.799,-2.517 -5.859,-4.078 -13.613,-4.201 -3.96,-0.063 -7.602,-0.417 -8.094,-0.786 -0.526,-0.396 -1.278,-0.21 -1.828,0.453 m -78.478,0.237 c 0,0.579 -1.426,5.203 -2.423,7.857 -0.33,0.88 -1.015,3.13 -1.521,5 -0.506,1.87 -1.266,3.4 -1.688,3.4 -0.422,0 -0.768,0.9 -0.768,2 0,1.1 -0.283,2 -0.63,2 -0.346,0 -0.686,0.744 -0.754,1.653 -0.167,2.212 -3.37,8.747 -4.287,8.747 -0.401,0 -0.639,0.45 -0.529,1 0.11,0.55 -0.277,0.901 -0.859,0.78 -0.583,-0.121 -0.884,0.066 -0.668,0.414 1.276,2.066 -11.507,16.828 -19.271,22.256 -5.624,3.931 -5.954,4.078 -5.291,2.35 0.718,-1.872 -0.111,-1.44 -3.237,1.686 -4.778,4.778 -4.598,9.474 0.442,11.562 3.467,1.436 15.457,-0.32 21.745,-3.185 2.008,-0.915 4.178,-1.663 4.821,-1.663 1.031,0 6.692,-2.517 11.318,-5.033 12.057,-6.557 15.99,-8.86 16.268,-9.531 0.148,-0.355 0.598,-0.442 1,-0.194 0.403,0.249 0.732,0.071 0.732,-0.395 0,-0.466 0.47,-0.847 1.045,-0.847 0.574,0 2.248,-0.888 3.719,-1.973 1.471,-1.086 3.037,-1.75 3.479,-1.477 0.442,0.274 0.598,0.163 0.345,-0.246 -0.252,-0.408 0.973,-1.567 2.723,-2.574 l 3.183,-1.832 -1.352,2.651 c -3.975,7.797 -22.783,30.015 -24.506,28.949 -0.35,-0.216 -0.636,0.145 -0.636,0.801 0,0.656 -0.673,1.407 -1.494,1.668 -0.822,0.26 -2.138,1.185 -2.924,2.053 -0.787,0.869 -1.947,1.58 -2.579,1.58 -1.17,0 -4.365,2.179 -7.865,5.364 -1.066,0.97 -1.938,1.581 -1.938,1.359 0,-0.222 -1.244,0.545 -2.765,1.705 -1.521,1.16 -3.104,1.9 -3.517,1.645 -0.413,-0.255 -0.933,0.012 -1.156,0.594 -0.395,1.028 -13.332,7.733 -14.921,7.733 -0.436,0 -2.074,0.72 -3.641,1.6 -1.567,0.88 -3.334,1.6 -3.926,1.6 -0.593,0 -1.536,0.552 -2.096,1.227 -0.56,0.674 -1.414,1.081 -1.898,0.904 -0.484,-0.177 -1.42,0.133 -2.08,0.69 -1.581,1.334 -8.345,3.579 -10.781,3.579 -1.058,0 -2.147,0.36 -2.419,0.8 -0.272,0.44 -1.397,0.8 -2.5,0.8 -1.103,0 -2.64,0.34 -3.415,0.755 -0.776,0.415 -5.962,0.97 -11.524,1.234 l -10.114,0.479 -0.506,-2.016 c -0.42,-1.674 -0.256,-5.121 0.619,-13.017 0.059,-0.53 0.407,-0.779 0.773,-0.553 0.645,0.399 1.005,-1.378 0.716,-3.53 -0.152,-1.128 1.121,-5.47 2.742,-9.352 0.551,-1.32 1.471,-4.02 2.045,-6 0.573,-1.98 1.509,-4.5 2.078,-5.6 0.57,-1.1 1.596,-3.415 2.28,-5.144 1.167,-2.947 9.719,-17.18 10.85,-18.056 0.284,-0.22 0.948,-1.22 1.476,-2.222 0.563,-1.068 1.358,-1.595 1.92,-1.272 0.528,0.303 0.699,0.261 0.379,-0.092 -0.32,-0.354 1.57,-3.069 4.2,-6.035 2.63,-2.966 4.781,-5.708 4.781,-6.094 0,-0.744 2.84,-2.747 3.71,-2.618 0.285,0.042 1.181,-0.972 1.993,-2.254 0.812,-1.282 2.395,-2.823 3.518,-3.424 1.123,-0.601 3.5,-2.439 5.281,-4.084 1.782,-1.644 4.378,-3.566 5.769,-4.27 2.705,-1.368 4.467,-2.409 7.849,-4.635 1.17,-0.77 2.701,-1.4 3.403,-1.4 0.703,0 1.277,-0.311 1.277,-0.691 0,-0.64 6.592,-3.533 7.607,-3.338 0.247,0.047 0.999,-0.463 1.671,-1.134 0.671,-0.672 3.088,-1.77 5.371,-2.441 2.283,-0.671 4.691,-1.569 5.351,-1.996 1.381,-0.893 4,-1.061 4,-0.257 M 248.586,177.4 c -4.58,5.082 0.481,10.683 6.242,6.908 2.565,-1.68 2.505,-4.199 -0.152,-6.483 -2.545,-2.186 -4.387,-2.315 -6.09,-0.425 M 362,189.368 c -1.32,0.696 -2.664,1.662 -2.988,2.148 -0.323,0.486 -0.593,0.657 -0.6,0.38 -0.006,-0.277 -1.582,0.983 -3.5,2.8 -1.919,1.817 -5.249,4.96 -7.4,6.984 -3.987,3.75 -7.187,7.405 -11.486,13.12 -1.324,1.76 -2.691,3.56 -3.039,4 -3.94,4.987 -10.006,15.385 -10.266,17.6 -0.309,2.634 -1.824,6 -2.701,6 -0.451,0 -0.82,0.926 -0.82,2.057 0,1.132 -0.54,2.597 -1.2,3.257 -0.66,0.66 -1.2,1.895 -1.2,2.743 0,0.849 -0.288,1.543 -0.639,1.543 -0.352,0 -1.095,1.26 -1.652,2.8 -0.557,1.54 -1.371,2.8 -1.808,2.8 -0.437,0 -0.609,0.302 -0.38,0.672 0.228,0.369 -0.321,2.044 -1.22,3.722 -1.768,3.298 -8.193,22.237 -9.094,26.806 -0.304,1.54 -1.06,4.343 -1.68,6.228 -0.62,1.885 -1.127,4.603 -1.127,6.04 0,1.437 -0.311,2.954 -0.692,3.372 -0.38,0.418 -1.296,4 -2.035,7.96 -0.738,3.96 -1.684,8.82 -2.1,10.8 -0.416,1.98 -1.315,7.74 -1.996,12.8 -0.681,5.06 -1.629,11.54 -2.106,14.4 -0.926,5.545 -2.091,20.888 -1.545,20.341 0.18,-0.18 0.81,0.074 1.4,0.564 0.794,0.658 1.378,0.638 2.239,-0.076 1.361,-1.129 3.111,-0.355 2.32,1.026 -0.298,0.52 -0.243,0.674 0.122,0.343 0.365,-0.331 1.232,-0.126 1.928,0.456 5.425,4.535 15.265,2.744 15.265,-2.778 0,-0.812 0.279,-1.476 0.62,-1.476 0.342,0 0.612,-5.31 0.6,-11.8 -0.011,-6.49 0.029,-13.6 0.088,-15.8 0.06,-2.2 0.118,-6.88 0.129,-10.4 0.011,-3.591 0.622,-8.507 1.393,-11.2 0.756,-2.64 1.821,-7.5 2.368,-10.8 1.356,-8.178 4.467,-20.986 5.384,-22.162 0.413,-0.529 0.868,-1.789 1.013,-2.8 0.144,-1.011 1.014,-3.813 1.933,-6.227 0.92,-2.413 1.684,-5.293 1.699,-6.4 0.015,-1.106 0.723,-3.451 1.573,-5.211 0.85,-1.76 1.558,-3.809 1.573,-4.553 0.015,-0.744 0.387,-1.575 0.827,-1.847 0.44,-0.272 0.8,-1.075 0.8,-1.784 0,-1.317 4.664,-11.491 5.6,-12.216 0.284,-0.22 0.722,-0.959 0.973,-1.643 1.072,-2.921 7.991,-12.75 8.677,-12.326 0.412,0.255 0.75,-0.011 0.75,-0.591 0,-1.354 3.127,-3.434 5.2,-3.459 1.085,-0.013 1.6,-0.558 1.6,-1.694 0,-1.708 5.419,-7.586 7.856,-8.521 0.739,-0.284 1.344,-1.045 1.344,-1.692 0,-0.646 1.08,-2.358 2.4,-3.803 1.32,-1.445 2.4,-2.367 2.4,-2.049 0,0.318 0.63,0.019 1.4,-0.663 0.77,-0.683 2.19,-1.853 3.155,-2.6 3.14,-2.43 1.985,-11.517 -1.582,-12.45 -1.1,-0.288 -1.376,-0.839 -1.006,-2.004 0.91,-2.869 -5.008,-4.716 -8.767,-2.737 m 2.274,49.573 c 0.34,0.34 -4.182,7.232 -7.256,11.059 -1.55,1.929 -5.919,9.28 -8.798,14.8 -1.72,3.3 -3.537,6.72 -4.037,7.6 -1.387,2.439 -4.479,9.497 -4.557,10.4 -0.037,0.44 -0.282,1.16 -0.542,1.6 -0.92,1.553 -2.44,6.921 -3.125,11.036 -0.659,3.955 -1.23,6.727 -3.08,14.964 -0.445,1.98 -0.825,5.1 -0.844,6.933 -0.019,1.834 -0.446,3.471 -0.949,3.638 -0.643,0.215 -0.94,5.174 -1,16.667 -0.097,18.465 0.547,22.01 4.416,24.295 1.28,0.756 2.166,1.634 1.97,1.951 -0.421,0.681 2.59,1.191 7.327,1.239 6.68,0.068 8.58,-5.407 5.942,-17.123 -0.545,-2.42 -0.815,-6.2 -0.6,-8.4 2.195,-22.452 3.739,-35.321 4.714,-39.311 1.322,-5.404 6.134,-19.296 8.592,-24.801 0.813,-1.821 1.721,-4.28 2.019,-5.464 0.297,-1.184 1.034,-2.343 1.637,-2.574 0.603,-0.232 1.097,-1.261 1.097,-2.288 0,-1.027 0.332,-2.073 0.738,-2.324 0.407,-0.251 0.975,-1.532 1.264,-2.847 0.289,-1.315 0.908,-2.391 1.375,-2.391 0.964,0 5.423,-4.453 5.423,-5.415 0,-0.836 2.966,-3.352 3.418,-2.9 0.195,0.195 0.855,-0.254 1.468,-0.996 0.865,-1.048 0.891,-1.424 0.114,-1.686 -0.55,-0.185 -1,-1.331 -1,-2.546 0,-3.689 -2.21,-4.898 -9.581,-5.238 -3.613,-0.166 -6.378,-0.112 -6.145,0.122 m -92.675,41.4 c -0.879,0.664 -2.19,1.22 -2.913,1.234 -1.218,0.023 -2.454,1.735 -2.617,3.625 -0.038,0.44 -1.211,0.911 -2.607,1.046 -1.647,0.16 -2.997,0.947 -3.846,2.242 -1.178,1.797 -1.662,1.943 -4.862,1.463 -2.36,-0.354 -3.554,-0.239 -3.554,0.341 0,0.48 -1.295,3.638 -2.877,7.018 -4.884,10.432 -6.266,17.836 -7.146,38.278 -0.283,6.594 -0.648,12.204 -0.811,12.467 -0.162,0.263 0.023,3.564 0.412,7.336 1.159,11.228 4.734,14.895 15.085,15.468 7.014,0.388 6.649,1.022 7.361,-12.779 0.32,-6.204 0.981,-12.782 1.469,-14.618 0.488,-1.835 1.053,-5.075 1.256,-7.2 0.202,-2.124 0.722,-5.842 1.154,-8.262 0.433,-2.42 1.351,-8.099 2.042,-12.619 0.69,-4.521 1.974,-10.268 2.854,-12.771 0.88,-2.504 1.391,-5.213 1.134,-6.02 -0.256,-0.808 0.112,-2.351 0.819,-3.429 0.707,-1.079 1.028,-1.961 0.714,-1.961 -0.315,0 0.116,-0.503 0.957,-1.118 2.597,-1.899 2.261,-10.402 -0.424,-10.716 -1.1,-0.129 -2.72,0.31 -3.6,0.975 m -144.11,1.892 c -4.828,4.166 -11.249,19.087 -15.047,34.967 -0.737,3.08 -1.858,7.665 -2.491,10.188 -0.633,2.523 -1.16,6.123 -1.171,8 -0.01,1.877 -0.358,4.877 -0.771,6.668 -0.414,1.791 -0.926,5.391 -1.138,8 -1.444,17.788 -1.443,17.69 -0.145,20.201 0.701,1.355 1.274,3.338 1.274,4.406 0,2.878 3.899,4.364 6.676,2.545 1.113,-0.729 2.676,-1.258 3.473,-1.175 4.894,0.51 5.763,0.061 6.656,-3.433 0.479,-1.87 1.44,-5.2 2.138,-7.4 0.856,-2.703 1.334,-7.729 1.471,-15.497 0.124,-6.957 0.536,-11.701 1.046,-12.016 0.462,-0.286 1.061,-3.359 1.329,-6.828 0.269,-3.47 0.774,-6.882 1.123,-7.584 0.348,-0.701 1.264,-4.155 2.034,-7.675 0.77,-3.52 1.925,-8.075 2.566,-10.122 1.154,-3.687 1.659,-13.995 0.837,-17.078 -0.235,-0.88 -0.454,-2.191 -0.488,-2.913 -0.033,-0.723 -0.961,-1.539 -2.061,-1.816 -1.291,-0.324 -2,-1.063 -2,-2.086 0,-2.238 -2.292,-1.958 -5.311,0.648 m 250.023,11.571 c -1.149,0.988 -2.672,3.096 -3.385,4.686 -0.714,1.589 -1.84,3.34 -2.503,3.89 -0.664,0.551 -1.014,1.313 -0.778,1.694 0.235,0.381 -0.011,1.51 -0.547,2.509 -1.15,2.141 -2.948,9.918 -3.473,15.017 -0.204,1.98 -0.67,5.58 -1.037,8 -0.772,5.104 0.677,21.934 2.122,24.633 0.52,0.972 0.77,1.767 0.555,1.767 -0.214,0 0.493,0.953 1.573,2.117 2.514,2.713 8.936,3.555 12.687,1.664 1.361,-0.686 3.498,-1.473 4.749,-1.748 2.226,-0.49 2.265,-0.59 1.795,-4.667 -0.264,-2.291 -0.694,-7.046 -0.956,-10.566 -0.262,-3.535 -0.952,-6.939 -1.541,-7.603 -1.399,-1.581 -1.629,-15.166 -0.392,-23.197 0.508,-3.3 1.057,-7.44 1.219,-9.2 0.162,-1.76 0.538,-4.348 0.837,-5.752 0.934,-4.387 -6.894,-6.711 -10.925,-3.244 M 210.183,306.82 c -1.659,0.61 -4.594,1.19 -6.521,1.289 l -3.504,0.182 -1.33,5.254 c -0.732,2.89 -1.479,5.949 -1.661,6.796 -0.181,0.848 -0.758,1.806 -1.281,2.129 -0.523,0.324 -1.003,2.33 -1.066,4.459 -0.063,2.129 -0.522,6.931 -1.021,10.671 -3.476,26.057 -2.452,37.003 3.399,36.361 1.061,-0.117 2.35,0.294 2.864,0.913 2.069,2.494 7.938,0.551 7.938,-2.629 0,-1.203 0.544,-1.578 2.289,-1.578 5.385,0 7.271,-2.758 7.019,-10.261 -0.125,-3.703 0.232,-10.979 0.793,-16.169 0.561,-5.19 1.22,-12.137 1.464,-15.437 0.606,-8.197 1.177,-11.791 2.528,-15.892 1.558,-4.729 0.576,-5.872 -4.834,-5.629 -2.745,0.123 -3.994,-0.119 -3.859,-0.749 0.11,-0.511 0.11,-0.905 0,-0.874 -0.11,0.031 -1.558,0.555 -3.217,1.164 m -57.342,21.4 c -3.939,6.267 -6.928,46.553 -3.717,50.097 1.713,1.891 5.276,2.283 5.276,0.581 0,-1.927 2.22,-3.04 6.168,-3.092 5.691,-0.076 7.13,-1.361 7.759,-6.927 0.291,-2.567 0.766,-4.906 1.057,-5.197 0.636,-0.636 0.71,-0.96 1.845,-8.082 0.491,-3.08 1.206,-6.68 1.589,-8 1.489,-5.132 0.882,-17.851 -0.803,-16.809 -0.337,0.208 -1.578,-0.514 -2.756,-1.606 -2.058,-1.908 -4.459,-2.648 -4.459,-1.375 0,1.569 -3.613,2.182 -4.8,0.815 -1.985,-2.286 -5.84,-2.504 -7.159,-0.405"
       inkscape:connector-curvature="0"
       style="fill:#000000;fill-rule:evenodd;stroke:none" />
  </g>
  <g
     aria-label="srcdeps"
     style="font-style:normal;font-variant:normal;font-weight:normal;font-stretch:normal;font-size:279.3999939px;line-height:1.25;font-family:'Courier New';-inkscape-font-specification:'Courier New, Normal';font-variant-ligatures:normal;font-variant-caps:normal;font-variant-numeric:normal;font-feature-settings:normal;text-align:start;letter-spacing:0px;word-spacing:0px;writing-mode:lr-tb;text-anchor:start;fill:#f48e27;fill-opacity:1;stroke:#f48e27;stroke-width:8;stroke-linecap:round;stroke-linejoin:round;stroke-miterlimit:4;stroke-dasharray:none;stroke-opacity:1"
     id="text878">
    <path
       d="m 551.47344,172.92205 q 0,-3.95635 1.63711,-5.72988 1.63711,-1.77354 4.09277,-1.77354 2.59209,0 4.2292,1.77354 1.63711,1.77353 1.63711,6.00273 v 19.64531 q 0,4.09278 -1.63711,5.86631 -1.63711,1.77354 -4.2292,1.77354 -2.31923,0 -3.95634,-1.50069 -1.50069,-1.50068 -1.77354,-4.91133 -0.81855,-8.18554 -8.4584,-13.50615 -11.18691,-7.63984 -29.60439,-7.63984 -19.23604,0 -29.87725,7.77627 -8.04912,5.86631 -8.04912,13.09687 0,8.18555 9.54981,13.64258 6.54843,3.81992 24.82949,5.86631 23.87451,2.59209 33.15146,5.86631 13.2333,4.7749 19.64531,13.2333 6.54844,8.4584 6.54844,18.28105 0,14.59756 -14.05185,26.05733 -14.05186,11.32334 -41.20059,11.32334 -27.14873,0 -44.4748,-13.77901 0,4.63848 -0.5457,6.00274 -0.54571,1.36425 -2.04639,2.31923 -1.36426,0.95498 -3.13779,0.95498 -2.45567,0 -4.09278,-1.77353 -1.63711,-1.77354 -1.63711,-5.86631 v -23.60166 q 0,-4.09277 1.50069,-5.86631 1.63711,-1.77353 4.2292,-1.77353 2.45566,0 4.09277,1.77353 1.77353,1.63711 1.77353,4.50205 0,6.27559 3.1378,10.50479 4.7749,6.54844 15.14326,10.91406 10.50478,4.2292 25.64804,4.2292 22.37383,0 33.28789,-8.32197 10.91407,-8.32198 10.91407,-17.59893 0,-10.64121 -11.05049,-17.05322 -11.18692,-6.41201 -32.60576,-8.59482 -21.28242,-2.18282 -30.55938,-5.72989 -9.27695,-3.54707 -14.46113,-10.64121 -5.18418,-7.09414 -5.18418,-15.27968 0,-14.73399 14.46113,-23.32881 14.46114,-8.73125 34.51573,-8.73125 23.73808,0 38.60849,11.59619 z"
       style="font-style:normal;font-variant:normal;font-weight:normal;font-stretch:normal;font-size:279.3999939px;font-family:'Courier New';-inkscape-font-specification:'Courier New, Normal';font-variant-ligatures:normal;font-variant-caps:normal;font-variant-numeric:normal;font-feature-settings:normal;text-align:start;letter-spacing:-0.03em;writing-mode:lr-tb;text-anchor:start;fill:#f48e27;fill-opacity:1;stroke:#f48e27;stroke-width:8;stroke-linecap:round;stroke-linejoin:round;stroke-miterlimit:4;stroke-dasharray:none;stroke-opacity:1"
       id="path4572" />
    <path
       d="m 659.05335,165.41863 v 28.92227 q 22.37382,-20.19102 33.42431,-25.9209 11.18692,-5.86631 20.60029,-5.86631 10.23194,0 18.96319,6.95771 8.86767,6.82129 8.86767,10.36836 0,2.59209 -1.77353,4.36563 -1.63711,1.63711 -4.2292,1.63711 -1.36426,0 -2.31924,-0.40928 -0.95498,-0.5457 -3.54707,-3.13779 -4.7749,-4.77491 -8.32197,-6.54844 -3.54707,-1.77354 -6.95772,-1.77354 -7.50341,0 -18.14463,6.00274 -10.50478,6.00273 -36.5621,29.33154 v 62.75586 h 50.75039 q 4.22919,0 6.00273,1.63711 1.77354,1.50068 1.77354,4.09277 0,2.45567 -1.77354,4.09278 -1.77354,1.6371 -6.00273,1.6371 h -89.90459 q -4.09278,0 -5.86631,-1.50068 -1.77354,-1.63711 -1.77354,-4.09277 0,-2.31924 1.63711,-3.81992 1.77354,-1.63711 6.00274,-1.63711 h 27.69443 v -95.49805 h -21.14599 q -4.09278,0 -5.86631,-1.63711 -1.77354,-1.63711 -1.77354,-4.2292 0,-2.45566 1.63711,-4.09277 1.77354,-1.63711 6.00274,-1.63711 z"
       style="font-style:normal;font-variant:normal;font-weight:normal;font-stretch:normal;font-size:279.3999939px;font-family:'Courier New';-inkscape-font-specification:'Courier New, Normal';font-variant-ligatures:normal;font-variant-caps:normal;font-variant-numeric:normal;font-feature-settings:normal;text-align:start;letter-spacing:-0.03em;writing-mode:lr-tb;text-anchor:start;fill:#f48e27;fill-opacity:1;stroke:#f48e27;stroke-width:8;stroke-linecap:round;stroke-linejoin:round;stroke-miterlimit:4;stroke-dasharray:none;stroke-opacity:1"
       id="path4574" />
    <path
       d="m 879.73022,177.01482 v -3.81992 q 0,-4.2292 1.63711,-6.00273 1.63711,-1.77354 4.09277,-1.77354 2.59209,0 4.2292,1.77354 1.63711,1.77353 1.63711,6.00273 v 25.9209 q -0.13642,4.2292 -1.77353,6.00273 -1.50069,1.77354 -4.09278,1.77354 -2.31923,0 -3.95634,-1.50069 -1.50069,-1.63711 -1.77354,-5.3206 -0.81855,-9.68623 -12.82402,-18.41748 -11.86904,-8.73125 -32.06006,-8.73125 -25.51162,0 -38.74492,15.96181 -13.2333,15.96182 -13.2333,36.56211 0,22.2374 14.59756,36.69854 14.59756,14.46113 37.78994,14.46113 13.36972,0 27.14873,-4.91133 13.91543,-4.91133 25.10234,-15.82539 2.86494,-2.72851 5.04775,-2.72851 2.31924,0 3.81993,1.63711 1.63711,1.50068 1.63711,3.81992 0,5.86631 -13.77901,14.87041 -22.2374,14.59756 -49.52256,14.59756 -27.69443,0 -45.56621,-17.59893 -17.73535,-17.73535 -17.73535,-44.88408 0,-27.69443 18.14463,-45.97549 18.28106,-18.28105 45.97549,-18.28105 26.33017,0 44.20195,15.68896 z"
       style="font-style:normal;font-variant:normal;font-weight:normal;font-stretch:normal;font-size:279.3999939px;font-family:'Courier New';-inkscape-font-specification:'Courier New, Normal';font-variant-ligatures:normal;font-variant-caps:normal;font-variant-numeric:normal;font-feature-settings:normal;text-align:start;letter-spacing:-0.03em;writing-mode:lr-tb;text-anchor:start;fill:#f48e27;fill-opacity:1;stroke:#f48e27;stroke-width:8;stroke-linecap:round;stroke-linejoin:round;stroke-miterlimit:4;stroke-dasharray:none;stroke-opacity:1"
       id="path4576" />
    <path
       d="m 1047.2011,112.349 v 159.75459 h 15.2796 q 4.2292,0 6.0028,1.63711 1.7735,1.50068 1.7735,4.09277 0,2.45567 -1.7735,4.09278 -1.7736,1.6371 -6.0028,1.6371 h -26.8758 v -22.7831 q -19.9182,27.28516 -50.614,27.28516 -15.55253,0 -29.87724,-8.18555 -14.18828,-8.32197 -22.51025,-23.60166 -8.18555,-15.27969 -8.18555,-31.51436 0,-16.37109 8.18555,-31.51435 8.32197,-15.27969 22.51025,-23.60166 14.32471,-8.32197 30.01367,-8.32197 30.01367,0 50.47757,27.28515 v -64.66582 h -15.2797 q -4.2292,0 -6.0028,-1.63711 -1.7735,-1.6371 -1.7735,-4.22919 0,-2.45567 1.7735,-4.09278 1.7736,-1.63711 6.0028,-1.63711 z m -11.5962,112.41484 q 0,-21.82812 -14.734,-36.83496 -14.734,-15.00683 -35.06144,-15.00683 -20.46387,0 -35.19785,15.00683 -14.73399,15.00684 -14.73399,36.83496 0,21.6917 14.73399,36.83496 14.73398,15.00684 35.19785,15.00684 20.32744,0 35.06144,-15.00684 14.734,-15.14326 14.734,-36.83496 z"
       style="font-style:normal;font-variant:normal;font-weight:normal;font-stretch:normal;font-size:279.3999939px;font-family:'Courier New';-inkscape-font-specification:'Courier New, Normal';font-variant-ligatures:normal;font-variant-caps:normal;font-variant-numeric:normal;font-feature-settings:normal;text-align:start;letter-spacing:-0.03em;writing-mode:lr-tb;text-anchor:start;fill:#f48e27;fill-opacity:1;stroke:#f48e27;stroke-width:8;stroke-linecap:round;stroke-linejoin:round;stroke-miterlimit:4;stroke-dasharray:none;stroke-opacity:1"
       id="path4578" />
    <path
       d="m 1212.2162,227.21951 h -116.7805 q 3.0014,22.2374 18.5539,35.87998 15.689,13.50615 38.745,13.50615 12.824,0 26.8758,-4.2292 14.0519,-4.2292 22.9196,-11.18691 2.5921,-2.04639 4.502,-2.04639 2.1828,0 3.8199,1.77354 1.6372,1.6371 1.6372,3.95634 0,2.31924 -2.1829,4.50205 -6.5484,6.82129 -23.3288,12.82403 -16.6439,5.86631 -34.2428,5.86631 -29.468,0 -49.2497,-19.23604 -19.6454,-19.37246 -19.6454,-46.79404 0,-24.96592 18.4175,-42.8377 18.5539,-17.87177 45.8391,-17.87177 28.1037,0 46.2483,18.41748 18.1447,18.28105 17.8718,47.47617 z M 1200.62,215.62332 q -3.4106,-18.96319 -18.0082,-30.83223 -14.4611,-11.86904 -34.5157,-11.86904 -20.0546,0 -34.5157,11.73262 -14.4612,11.73261 -18.0082,30.96865 z"
       style="font-style:normal;font-variant:normal;font-weight:normal;font-stretch:normal;font-size:279.3999939px;font-family:'Courier New';-inkscape-font-specification:'Courier New, Normal';font-variant-ligatures:normal;font-variant-caps:normal;font-variant-numeric:normal;font-feature-settings:normal;text-align:start;letter-spacing:-0.03em;writing-mode:lr-tb;text-anchor:start;fill:#f48e27;fill-opacity:1;stroke:#f48e27;stroke-width:8;stroke-linecap:round;stroke-linejoin:round;stroke-miterlimit:4;stroke-dasharray:none;stroke-opacity:1"
       id="path4580" />
    <path
       d="m 1266.1808,165.41863 v 20.87314 q 10.2319,-12.41474 21.9645,-18.69033 11.7327,-6.27558 27.6945,-6.27558 16.9168,0 31.2415,7.91269 14.3247,7.9127 22.101,22.10098 7.9126,14.05185 7.9126,29.60439 0,24.69307 -17.7353,42.29199 -17.5989,17.4625 -43.3834,17.4625 -30.6958,0 -49.7954,-24.96591 v 69.03144 h 27.8309 q 4.0927,0 5.8663,1.50068 1.7735,1.63711 1.7735,4.2292 0,2.45567 -1.7735,4.09278 -1.7736,1.6371 -5.8663,1.6371 h -54.7068 q -4.0928,0 -5.8663,-1.6371 -1.7735,-1.50069 -1.7735,-4.09278 0,-2.59209 1.7735,-4.2292 1.7735,-1.50068 5.8663,-1.50068 h 15.4161 V 177.01482 h -15.4161 q -4.0928,0 -5.8663,-1.63711 -1.7735,-1.63711 -1.7735,-4.2292 0,-2.45566 1.7735,-4.09277 1.7735,-1.63711 5.8663,-1.63711 z m 99.318,55.52529 q 0,-19.78174 -14.4612,-33.83359 -14.3247,-14.18828 -35.0614,-14.18828 -20.8731,0 -35.3343,14.18828 -14.4611,14.18828 -14.4611,33.83359 0,19.78174 14.4611,33.97002 14.4612,14.18828 35.3343,14.18828 20.6003,0 35.0614,-14.05185 14.4612,-14.18828 14.4612,-34.10645 z"
       style="font-style:normal;font-variant:normal;font-weight:normal;font-stretch:normal;font-size:279.3999939px;font-family:'Courier New';-inkscape-font-specification:'Courier New, Normal';font-variant-ligatures:normal;font-variant-caps:normal;font-variant-numeric:normal;font-feature-settings:normal;text-align:start;letter-spacing:-0.03em;writing-mode:lr-tb;text-anchor:start;fill:#f48e27;fill-opacity:1;stroke:#f48e27;stroke-width:8;stroke-linecap:round;stroke-linejoin:round;stroke-miterlimit:4;stroke-dasharray:none;stroke-opacity:1"
       id="path4582" />
    <path
       d="m 1506.3666,172.92205 q 0,-3.95635 1.6371,-5.72988 1.6371,-1.77354 4.0928,-1.77354 2.592,0 4.2292,1.77354 1.6371,1.77353 1.6371,6.00273 v 19.64531 q 0,4.09278 -1.6371,5.86631 -1.6372,1.77354 -4.2292,1.77354 -2.3193,0 -3.9564,-1.50069 -1.5007,-1.50068 -1.7735,-4.91133 -0.8186,-8.18554 -8.4584,-13.50615 -11.1869,-7.63984 -29.6044,-7.63984 -19.2361,0 -29.8773,7.77627 -8.0491,5.86631 -8.0491,13.09687 0,8.18555 9.5498,13.64258 6.5485,3.81992 24.8295,5.86631 23.8745,2.59209 33.1515,5.86631 13.2333,4.7749 19.6453,13.2333 6.5484,8.4584 6.5484,18.28105 0,14.59756 -14.0518,26.05733 -14.0519,11.32334 -41.2006,11.32334 -27.1488,0 -44.4748,-13.77901 0,4.63848 -0.5457,6.00274 -0.5457,1.36425 -2.0464,2.31923 -1.3643,0.95498 -3.1378,0.95498 -2.4557,0 -4.0928,-1.77353 -1.6371,-1.77354 -1.6371,-5.86631 v -23.60166 q 0,-4.09277 1.5007,-5.86631 1.6371,-1.77353 4.2292,-1.77353 2.4557,0 4.0928,1.77353 1.7735,1.63711 1.7735,4.50205 0,6.27559 3.1378,10.50479 4.7749,6.54844 15.1433,10.91406 10.5047,4.2292 25.648,4.2292 22.3738,0 33.2879,-8.32197 10.9141,-8.32198 10.9141,-17.59893 0,-10.64121 -11.0505,-17.05322 -11.1869,-6.41201 -32.6058,-8.59482 -21.2824,-2.18282 -30.5594,-5.72989 -9.2769,-3.54707 -14.4611,-10.64121 -5.1842,-7.09414 -5.1842,-15.27968 0,-14.73399 14.4612,-23.32881 14.4611,-8.73125 34.5157,-8.73125 23.7381,0 38.6085,11.59619 z"
       style="font-style:normal;font-variant:normal;font-weight:normal;font-stretch:normal;font-size:279.3999939px;font-family:'Courier New';-inkscape-font-specification:'Courier New, Normal';font-variant-ligatures:normal;font-variant-caps:normal;font-variant-numeric:normal;font-feature-settings:normal;text-align:start;letter-spacing:-0.03em;writing-mode:lr-tb;text-anchor:start;fill:#f48e27;fill-opacity:1;stroke:#f48e27;stroke-width:8;stroke-linecap:round;stroke-linejoin:round;stroke-miterlimit:4;stroke-dasharray:none;stroke-opacity:1"
       id="path4584" />
  </g>
</svg>
